<svg height="512" viewBox="0 0 24 24" width="512" xmlns="http://www.w3.org/2000/svg"><g><path d="m11.311 12.6712c-3.3166-.1423-6.66214.5887-9.68123 2.1931-.54138.2877-.87977.8507-.87977 1.4638v3.6718c0 .9665.7835 1.75 1.75 1.75h13.4743c-3.1638-.0138-5.7243-2.5828-5.7243-5.7499 0-1.2406.3929-2.3894 1.061-3.3288z"/><g fill-rule="evenodd"><path d="m5.25 6c0-2.89949 2.35051-5.25 5.25-5.25 2.8995 0 5.25 2.35051 5.25 5.25 0 2.8995-2.3505 5.25-5.25 5.25-2.89949 0-5.25-2.3505-5.25-5.25z"/><path d="m16 12.75c-1.7949 0-3.25 1.4551-3.25 3.25s1.4551 3.25 3.25 3.25 3.25-1.4551 3.25-3.25-1.4551-3.25-3.25-3.25zm-4.75 3.25c0-2.6234 2.1266-4.75 4.75-4.75s4.75 2.1266 4.75 4.75-2.1266 4.75-4.75 4.75-4.75-2.1266-4.75-4.75z"/><path d="m18.4697 18.4697c.2929-.2929.7677-.2929 1.0606 0l3.5 3.5c.2929.2929.2929.7677 0 1.0606s-.7677.2929-1.0606 0l-3.5-3.5c-.2929-.2929-.2929-.7677 0-1.0606z"/></g></g></svg>